<svg width="73" height="29" viewBox="0 0 73 29" fill="none" xmlns="http://www.w3.org/2000/svg">
    <rect x="5.09729" y="0.243591" width="2.54866" height="14.9734" fill="currentColor"/>
    <rect y="12.6684" width="2.54866" height="2.54866" fill="currentColor"/>
    <rect x="1.27429" y="13.9427" width="2.54866" height="1.27433" fill="currentColor"/>
    <rect x="1.27429" y="15.2161" width="2.54866" height="1.27433" fill="currentColor"/>
    <rect x="2.54834" y="15.2161" width="16.5663" height="3.82299" fill="currentColor"/>
    <rect x="5.09729" y="13.9427" width="11.469" height="3.82299" fill="currentColor"/>
    <rect x="5.09729" y="12.6684" width="10.1946" height="3.82299" fill="currentColor"/>
    <rect x="5.09729" y="19.0399" width="10.1946" height="3.82299" fill="currentColor"/>
    <rect x="3.82288" y="17.7656" width="10.1946" height="3.82299" fill="currentColor"/>
    <rect x="6.37158" y="19.0399" width="10.1946" height="6.37164" fill="currentColor"/>
    <rect x="8.92041" y="6.29681" width="2.54866" height="14.9734" fill="currentColor"/>
    <rect x="12.7433" y="7.57111" width="2.54866" height="14.9734" fill="currentColor"/>
    <rect x="16.5663" y="8.84543" width="1.27433" height="14.0176" fill="currentColor"/>
    <rect x="17.8406" y="10.1198" width="1.27433" height="10.1946" fill="currentColor"/>
    <path d="M34.9932 17.4639H31.0665V22.9999H28.9637V7.4863H34.9932C38.0402 7.4863 39.9928 9.48183 39.9928 12.4644C39.9928 15.3611 38.0187 17.4639 34.9932 17.4639ZM34.6285 9.37454H31.0665V15.5757H34.5426C36.624 15.5757 37.7827 14.3526 37.7827 12.4429C37.7827 10.4903 36.6025 9.37454 34.6285 9.37454ZM42.16 10.0183C41.4304 10.0183 40.8296 9.41746 40.8296 8.68791C40.8296 7.9369 41.4304 7.35756 42.16 7.35756C42.8895 7.35756 43.4903 7.9369 43.4903 8.68791C43.4903 9.41746 42.8895 10.0183 42.16 10.0183ZM41.1729 22.9999V12.5073H43.1899V22.9999H41.1729ZM44.5732 17.7643C44.5732 14.4814 46.6546 12.2069 49.723 12.2069C52.3622 12.2069 54.2075 13.7089 54.5723 16.0478H52.5553C52.212 14.7174 51.1392 14.0093 49.7873 14.0093C47.8776 14.0093 46.5688 15.4684 46.5688 17.7429C46.5688 19.9959 47.7918 21.455 49.7015 21.455C51.1392 21.455 52.212 20.704 52.5768 19.4595H54.5938C54.1861 21.7339 52.2335 23.2574 49.7015 23.2574C46.6117 23.2574 44.5732 21.0688 44.5732 17.7643ZM57.9235 22.9999H55.9065V7.20736H57.9235V17.4425L62.5797 12.5073H65.1117L61.0992 16.6915L65.0902 22.9999H62.7728L59.7045 18.1506L57.9235 20.0173V22.9999ZM71.9096 12.4215V14.2668H71.0084C69.0987 14.2668 67.9186 15.4255 67.9186 17.4425V22.9999H65.9016V12.5288H67.7898L67.9186 14.1166C68.3477 13.0223 69.3991 12.2927 70.8368 12.2927C71.2015 12.2927 71.5019 12.3356 71.9096 12.4215Z"
          fill="currentColor"/>
</svg>
